HIERARCHY
ROOT Hips
{
	OFFSET 0.00 0.00 0.00
	CHANNELS 6 Xposition Yposition Zposition Xrotation Yrotation Zrotation
	JOINT Spine
	{
		OFFSET 0.00000 1.75157 2.62736
		CHANNELS 3 Xrotation Yrotation Zrotation
		JOINT Spine1
		{
			OFFSET 0.00000 0.60831 3.44992
			CHANNELS 3 Xrotation Yrotation Zrotation
			JOINT Spine2
			{
				OFFSET 0.00000 0.30532 3.48981
				CHANNELS 3 Xrotation Yrotation Zrotation
				JOINT Spine3
				{
					OFFSET 0.00000 0.00000 3.50314
					CHANNELS 3 Xrotation Yrotation Zrotation
					JOINT Neck
					{
						OFFSET 0.00000 -1.31367 9.19575
						CHANNELS 3 Xrotation Yrotation Zrotation
						JOINT Head
						{
							OFFSET 0.00000 -0.83643 4.74364
							CHANNELS 3 Xrotation Yrotation Zrotation
							End Site
							{
								OFFSET 0.00000 0.00001 5.67071
							}
						}
					}
					JOINT RightShoulder
					{
						OFFSET -1.05974 -1.76624 5.72262
						CHANNELS 3 Xrotation Yrotation Zrotation
						JOINT RightArm
						{
							OFFSET -5.26340 0.00000 0.00000
							CHANNELS 3 Xrotation Yrotation Zrotation
							JOINT RightForeArm
							{
								OFFSET -10.14667 0.00000 0.00000
								CHANNELS 3 Xrotation Yrotation Zrotation
								JOINT RightHand
								{
									OFFSET -8.53343 0.00000 0.00000
									CHANNELS 3 Xrotation Yrotation Zrotation
									JOINT RightHandEnd
									{
										OFFSET -2.46135 0.00000 0.00000
										CHANNELS 3 Xrotation Yrotation Zrotation
										End Site
										{
											OFFSET -2.46135 0.00000 0.00000
										}
									}
									JOINT RightHandThumb1
									{
										OFFSET -0.98454 -1.64090 -0.65636
										CHANNELS 3 Yrotation Xrotation Zrotation
										End Site
										{
											OFFSET -2.37748 -0.63704 0.00000
										}
									}
								}
							}
						}
					}
					JOINT LeftShoulder
					{
						OFFSET 1.05974 -1.76624 5.72262
						CHANNELS 3 Xrotation Yrotation Zrotation
						JOINT LeftArm
						{
							OFFSET 5.26340 0.00000 0.00000
							CHANNELS 3 Xrotation Yrotation Zrotation
							JOINT LeftForeArm
							{
								OFFSET 10.14667 0.00000 0.00000
								CHANNELS 3 Xrotation Yrotation Zrotation
								JOINT LeftHand
								{
									OFFSET 8.53343 0.00000 0.00000
									CHANNELS 3 Xrotation Yrotation Zrotation
									JOINT LeftHandEnd
									{
										OFFSET 2.46135 0.00000 0.00000
										CHANNELS 3 Xrotation Yrotation Zrotation
										End Site
										{
											OFFSET 2.46135 0.00000 0.00000
										}
									}
									JOINT LeftHandThumb1
									{
										OFFSET 0.98454 -1.64090 -0.65636
										CHANNELS 3 Yrotation Xrotation Zrotation
										End Site
										{
											OFFSET 2.37748 -0.63704 0.00000
										}
									}
								}
							}
						}
					}
				}
			}
		}
	}
	JOINT RightUpLeg
	{
		OFFSET -3.14391 0.00000 -0.91845
		CHANNELS 3 Xrotation Yrotation Zrotation
		JOINT RightLeg
		{
			OFFSET 0.00000 0.00000 -14.43197
			CHANNELS 3 Xrotation Yrotation Zrotation
			JOINT RightFoot
			{
				OFFSET 0.00000 0.00000 -14.31693
				CHANNELS 3 Xrotation Yrotation Zrotation
				JOINT RightToeBase
				{
					OFFSET 0.00000 -4.51635 -1.64382
					CHANNELS 3 Xrotation Yrotation Zrotation
					End Site
					{
						OFFSET 0.00000 -2.54339 -0.00000
					}
				}
			}
		}
	}
	JOINT LeftUpLeg
	{
		OFFSET 3.14391 0.00000 -0.91845
		CHANNELS 3 Xrotation Yrotation Zrotation
		JOINT LeftLeg
		{
			OFFSET 0.00000 0.00000 -14.43197
			CHANNELS 3 Xrotation Yrotation Zrotation
			JOINT LeftFoot
			{
				OFFSET 0.00000 0.00000 -14.31693
				CHANNELS 3 Xrotation Yrotation Zrotation
				JOINT LeftToeBase
				{
					OFFSET 0.00000 -4.51635 -1.64382
					CHANNELS 3 Xrotation Yrotation Zrotation
					End Site
					{
						OFFSET 0.00000 -2.54339 -0.00000
					}
				}
			}
		}
	}
}
MOTION
Frames: 9
Frame Time: 0.008342
 -0.9074 -26.5279 31.1850 -2.5177 1.2364 -86.9090 1.7383 1.4775 -0.6457 1.2836 0.4572 -0.1644 1.2991 -3.2735 -3.3796 0.2498 -0.2468 0.1524 -13.1816 -4.3443 -2.5295 -7.6907 2.6300 1.1581 6.6197 -15.2242 16.1334 11.7068 -27.9288 61.5688 -0.0000 0.0001 80.9272 69.7259 -7.2112 -32.3421 0.0000 -0.0000 0.0000 -0.0000 -0.0000 0.0000 3.0061 1.2156 -13.2892 11.0107 18.1038 -10.0614 -0.0001 -0.0001 -106.7292 62.7435 -10.9845 24.7680 -0.0000 -0.0000 0.0000 -0.0000 0.0000 -0.0000 -20.4862 5.5754 -12.9049 31.2972 0.0000 0.0000 -13.3651 -2.6298 -13.8015 -21.8721 0.0000 -0.0000 -0.8759 7.0802 25.4786 16.2003 0.0000 0.0000 -13.4468 -0.4628 0.7657 -1.2477 0.0000 -0.0000
 -0.8458 -26.5293 31.1514 -3.0647 1.3009 -86.9586 1.9024 1.6252 -0.6949 1.4119 0.4929 -0.1516 1.2274 -2.9865 -3.2917 0.2158 -0.1621 0.0769 -13.2573 -4.0341 -2.3783 -7.8688 2.4189 1.0198 6.7666 -15.0691 16.2442 12.7469 -28.4688 62.5768 -0.0000 0.0001 79.7630 70.0745 -5.9016 -32.2422 -0.0000 0.0000 -0.0000 -0.0000 -0.0000 0.0000 3.2210 1.1022 -12.8931 10.3798 18.0339 -9.1405 -0.0001 -0.0001 -106.0539 63.6063 -11.0489 24.9183 -0.0000 0.0000 0.0000 0.0000 -0.0000 0.0000 -21.1335 6.4393 -12.9432 32.8377 0.0000 0.0000 -13.5623 -2.0899 -13.9149 -21.9077 0.0000 -0.0000 -0.6441 7.7514 25.7305 15.6429 0.0000 0.0000 -13.4270 -0.6001 0.7645 -0.9573 0.0000 -0.0000
 -0.7845 -26.5273 31.1169 -3.5741 1.3785 -86.9782 2.0708 1.7559 -0.7383 1.5319 0.5179 -0.1384 1.1781 -2.7160 -3.2026 0.1909 -0.0800 0.0046 -13.3566 -3.6963 -2.2309 -8.0498 2.2032 0.8470 6.9066 -14.9113 16.3751 13.6689 -28.9316 63.4309 -0.0000 0.0001 78.6602 70.3744 -4.6858 -32.1414 -0.0000 0.0000 -0.0000 -0.0000 -0.0000 0.0000 3.4093 1.0510 -12.5203 9.7115 17.9816 -8.2939 -0.0001 -0.0001 -105.3121 64.4776 -11.0474 25.0498 -0.0000 -0.0000 0.0000 -0.0000 -0.0000 0.0000 -21.7444 7.2549 -12.8670 34.3849 0.0000 0.0000 -13.7293 -1.7481 -13.8638 -21.9912 0.0000 -0.0000 -0.4929 8.3563 25.8255 15.2730 0.0000 0.0000 -13.4646 -0.7916 0.8835 -0.6749 0.0000 -0.0000
 -0.7235 -26.5218 31.0821 -4.0444 1.4617 -86.9736 2.2356 1.8720 -0.7741 1.6441 0.5298 -0.1268 1.1504 -2.4639 -3.1036 0.1736 -0.0040 -0.0609 -13.4794 -3.3296 -2.0897 -8.2213 1.9832 0.6393 7.0462 -14.7471 16.5209 14.4575 -29.3145 64.1200 -0.0000 0.0001 77.6310 70.6472 -3.5735 -32.0504 -0.0000 -0.0000 -0.0000 -0.0000 -0.0000 0.0000 3.5761 1.0733 -12.1803 9.0080 17.9336 -7.5280 -0.0001 -0.0001 -104.5082 65.3303 -11.0042 25.1425 0.0000 -0.0000 0.0000 -0.0000 -0.0000 0.0000 -22.3218 8.0131 -12.6671 35.9252 0.0000 0.0000 -13.8653 -1.6136 -13.6517 -22.1412 0.0000 -0.0000 -0.4242 8.8929 25.7783 15.0797 0.0000 0.0000 -13.5481 -1.0213 1.1017 -0.4054 0.0000 -0.0000
 -0.6634 -26.5130 31.0478 -4.4760 1.5499 -86.9523 2.3991 1.9722 -0.8009 1.7383 0.5372 -0.1172 1.1490 -2.2390 -2.9867 0.1640 0.0660 -0.1171 -13.6214 -2.9376 -1.9520 -8.3763 1.7620 0.3943 7.1892 -14.5667 16.6831 15.0998 -29.6277 64.6284 -0.0000 0.0001 76.6868 70.9167 -2.5552 -31.9734 -0.0000 0.0000 -0.0000 0.0000 0.0000 -0.0000 3.7215 1.1664 -11.8828 8.2803 17.8942 -6.8501 -0.0001 -0.0001 -103.6471 66.1409 -10.9443 25.1845 0.0000 -0.0000 0.0000 -0.0000 0.0000 -0.0000 -22.8610 8.7088 -12.3425 37.4446 0.0000 0.0000 -13.9687 -1.6823 -13.2898 -22.3597 0.0000 -0.0000 -0.4272 9.3632 25.6180 15.0428 0.0000 0.0000 -13.6614 -1.2703 1.3902 -0.1547 0.0000 -0.0000
 -0.6062 -26.4999 31.0150 -4.8592 1.6612 -86.9219 2.5656 2.0535 -0.8192 1.8369 0.5184 -0.1096 1.1595 -2.0219 -2.8432 0.1626 0.1262 -0.1560 -13.7794 -2.5261 -1.8214 -8.5057 1.5428 0.1108 7.3468 -14.3750 16.8383 15.5869 -29.8615 64.9710 -0.0000 0.0001 75.8252 71.1966 -1.6280 -31.9202 -0.0000 -0.0000 -0.0000 0.0000 0.0000 -0.0000 3.8422 1.3273 -11.6379 7.5455 17.8628 -6.2681 -0.0001 -0.0001 -102.7379 66.8870 -10.8815 25.1672 0.0000 -0.0000 -0.0000 -0.0000 -0.0000 0.0000 -23.3300 9.3246 -11.9042 38.9165 0.0000 0.0000 -14.0335 -1.9369 -12.8009 -22.6348 0.0000 -0.0000 -0.4661 9.7539 25.4018 15.1366 0.0000 0.0000 -13.7932 -1.5168 1.6963 0.0687 0.0000 0.0000
 -0.5470 -26.4833 30.9828 -5.2001 1.7201 -86.8849 2.6874 2.1145 -0.8334 1.8976 0.5115 -0.0952 1.2015 -1.8453 -2.6772 0.1676 0.1787 -0.1853 -13.9554 -2.0976 -1.6877 -8.6033 1.3289 -0.2084 7.5024 -14.1493 17.0117 15.9245 -30.0568 65.1208 -0.0000 0.0001 75.0596 71.5146 -0.7705 -31.8901 -0.0000 0.0000 -0.0000 -0.0000 -0.0000 -0.0000 3.9281 1.5533 -11.4431 6.8193 17.8494 -5.7856 -0.0001 -0.0001 -101.7868 67.5530 -10.8332 25.0824 0.0000 -0.0000 0.0000 -0.0000 0.0000 -0.0000 -23.8243 9.8729 -11.3563 40.3454 0.0000 0.0000 -14.0496 -2.3512 -12.2188 -22.9450 0.0000 -0.0000 -0.6378 10.0768 25.1236 15.3769 0.0000 0.0000 -13.9398 -1.7617 2.0398 0.2574 0.0000 0.0000
 -0.4936 -26.4619 30.9533 -5.4852 1.8226 -86.8516 2.8289 2.1531 -0.8343 1.9601 0.4607 -0.0921 1.2535 -1.6593 -2.4642 0.1767 0.2234 -0.2004 -14.1287 -1.6678 -1.5690 -8.6720 1.1223 -0.5526 7.6775 -13.9199 17.1704 16.1030 -30.1768 65.1033 -0.0000 0.0001 74.3802 71.8581 0.0224 -31.8932 -0.0000 0.0000 0.0000 0.0000 -0.0000 -0.0000 3.9869 1.8269 -11.3115 6.1186 17.8546 -5.4027 -0.0001 -0.0001 -100.8080 68.1211 -10.8058 24.9297 0.0000 -0.0000 0.0000 -0.0000 0.0000 0.0000 -24.2119 10.3307 -10.7274 41.6899 0.0000 0.0000 -14.0217 -2.8901 -11.5751 -23.2632 0.0000 -0.0000 -0.7932 10.3109 24.8897 15.6966 0.0000 0.0000 -14.0882 -1.9735 2.3242 0.4069 0.0000 0.0000
 -0.4409 -26.4366 30.9251 -5.7220 1.8900 -86.8207 2.9289 2.1667 -0.8336 2.0078 0.4140 -0.0799 1.3188 -1.5030 -2.2243 0.1900 0.2561 -0.1973 -14.3043 -1.2262 -1.4537 -8.7076 0.9220 -0.9239 7.8533 -13.6603 17.3187 16.1382 -30.2574 64.9189 -0.0000 0.0001 73.7894 72.2342 0.7579 -31.9272 -0.0000 0.0000 0.0000 0.0000 -0.0000 -0.0000 4.0144 2.1536 -11.2365 5.4559 17.8776 -5.1291 -0.0001 -0.0001 -99.8089 68.5892 -10.7976 24.7202 0.0000 -0.0000 -0.0000 -0.0000 -0.0000 0.0000 -24.5929 10.7181 -10.0319 42.9581 0.0000 0.0000 -13.9462 -3.5158 -10.9089 -23.5658 0.0000 -0.0000 -1.0330 10.4703 24.6794 16.1122 0.0000 0.0000 -14.2419 -2.1643 2.5867 0.5152 0.0000 0.0000
